<svg version="1.1" id="Layer_1" xmlns="http://www.w3.org/2000/svg" xmlns:xlink="http://www.w3.org/1999/xlink" x="0px" y="0px"
	 width="100%" viewBox="0 0 96 96" enable-background="new 0 0 96 96" xml:space="preserve">
<path fill="#000000" opacity="1.000000" stroke="none" 
	d="
M62.000000,97.000000 
	C41.333332,97.000000 21.166666,97.000000 1.000000,97.000000 
	C1.000000,65.000000 1.000000,33.000000 1.000000,1.000000 
	C33.000000,1.000000 65.000000,1.000000 97.000000,1.000000 
	C97.000000,33.000000 97.000000,65.000000 97.000000,97.000000 
	C85.500000,97.000000 74.000000,97.000000 62.000000,97.000000 
M34.195419,84.012985 
	C36.583740,85.256958 38.874290,86.808174 41.402454,87.612640 
	C42.628880,88.002899 44.713829,87.438568 45.689137,86.531342 
	C48.128654,84.262115 49.907547,84.358604 52.413120,86.530777 
	C53.452499,87.431854 55.762363,87.167702 57.425175,86.936073 
	C58.412197,86.798569 59.261570,85.116959 60.177357,85.112755 
	C66.903488,85.081825 64.957840,80.264305 64.786133,76.701019 
	C64.696609,74.842949 63.516052,73.064110 63.072163,71.191673 
	C61.435196,64.286545 63.120430,60.241737 68.529587,58.170719 
	C86.676102,51.222927 95.024315,34.771008 93.907242,17.301573 
	C93.818062,15.907041 92.712631,14.153469 91.543434,13.412054 
	C90.849075,12.971734 88.874954,13.899175 87.870499,14.703826 
	C81.376579,19.906006 74.347145,23.914740 66.210762,26.072355 
	C63.741264,26.727215 60.736126,28.229155 59.524803,30.264627 
	C54.317448,39.014885 41.744865,36.981091 37.907829,29.940163 
	C37.087158,28.434231 35.596210,26.437124 34.194668,26.241999 
	C24.470955,24.888231 16.553940,20.185545 9.315130,13.914255 
	C7.279197,12.150438 4.181159,13.379290 4.041826,15.992616 
	C3.538806,25.427217 4.772557,34.566998 10.170331,42.595390 
	C15.000327,49.779297 21.205647,55.367401 29.613939,58.297310 
	C34.453873,59.983807 35.852074,63.270267 35.082226,68.388008 
	C34.314342,73.492668 33.925587,78.654358 34.195419,84.012985 
M55.412212,23.991541 
	C59.496105,21.641638 60.144096,18.397650 57.089943,15.592478 
	C53.886742,12.650412 44.086464,12.305312 41.173409,15.599517 
	C39.868099,17.075617 39.858906,19.904051 39.843231,22.122908 
	C39.840435,22.518831 43.496189,23.776562 44.092609,23.205498 
	C48.054905,19.411652 51.309555,20.981546 55.412212,23.991541 
z"/>
<path fill="#DBDBDB" opacity="1.000000" stroke="none" 
	d="
M33.783012,83.902016 
	C33.925587,78.654358 34.314342,73.492668 35.082226,68.388008 
	C35.852074,63.270267 34.453873,59.983807 29.613939,58.297310 
	C21.205647,55.367401 15.000327,49.779297 10.170331,42.595390 
	C4.772557,34.566998 3.538806,25.427217 4.041826,15.992616 
	C4.181159,13.379290 7.279197,12.150438 9.315130,13.914255 
	C16.553940,20.185545 24.470955,24.888231 34.194668,26.241999 
	C35.596210,26.437124 37.087158,28.434231 37.907829,29.940163 
	C41.744865,36.981091 54.317448,39.014885 59.524803,30.264627 
	C60.736126,28.229155 63.741264,26.727215 66.210762,26.072355 
	C74.347145,23.914740 81.376579,19.906006 87.870499,14.703826 
	C88.874954,13.899175 90.849075,12.971734 91.543434,13.412054 
	C92.712631,14.153469 93.818062,15.907041 93.907242,17.301573 
	C95.024315,34.771008 86.676102,51.222927 68.529587,58.170719 
	C63.120430,60.241737 61.435196,64.286545 63.072163,71.191673 
	C63.516052,73.064110 64.696609,74.842949 64.786133,76.701019 
	C64.957840,80.264305 66.903488,85.081825 60.177357,85.112755 
	C59.261570,85.116959 58.412197,86.798569 57.425175,86.936073 
	C55.762363,87.167702 53.452499,87.431854 52.413120,86.530777 
	C49.907547,84.358604 48.128654,84.262115 45.689137,86.531342 
	C44.713829,87.438568 42.628880,88.002899 41.402454,87.612640 
	C38.874290,86.808174 36.583740,85.256958 33.783012,83.902016 
M47.936920,40.505989 
	C47.036339,42.488792 46.135757,44.471596 45.105064,46.740860 
	C40.183281,47.585529 37.450493,49.374207 37.635860,51.882183 
	C37.794785,51.909565 37.964233,51.986687 38.110806,51.955681 
	C38.732517,51.824169 39.353592,51.681831 39.963863,51.505318 
	C44.769413,50.115345 46.066551,50.963757 45.953026,55.884853 
	C45.881657,58.978279 44.879841,62.101505 45.137966,65.139786 
	C45.574200,70.274467 42.332851,76.605690 50.436810,80.718224 
	C51.373898,77.548958 52.808346,74.812599 52.867916,72.046638 
	C52.984413,66.637253 52.189560,61.215221 52.042824,55.791096 
	C51.911350,50.931362 53.218193,50.139645 58.112228,51.557121 
	C58.855473,51.772388 59.628483,51.884903 60.387722,52.044949 
	C60.656113,51.577343 60.924500,51.109734 61.192890,50.642128 
	C59.255959,47.698174 55.423256,47.695156 53.193748,45.833096 
	C51.662155,43.906593 50.130562,41.980087 47.936920,40.505989 
z"/>
<path fill="#DBDBDB" opacity="1.000000" stroke="none" 
	d="
M55.011986,23.968750 
	C51.309555,20.981546 48.054905,19.411652 44.092609,23.205498 
	C43.496189,23.776562 39.840435,22.518831 39.843231,22.122908 
	C39.858906,19.904051 39.868099,17.075617 41.173409,15.599517 
	C44.086464,12.305312 53.886742,12.650412 57.089943,15.592478 
	C60.144096,18.397650 59.496105,21.641638 55.011986,23.968750 
z"/>
<path fill="#000000" opacity="1.000000" stroke="none" 
	d="
M48.267944,40.279785 
	C50.130562,41.980087 51.662155,43.906593 53.193748,45.833096 
	C55.423256,47.695156 59.255959,47.698174 61.192890,50.642128 
	C60.924500,51.109734 60.656113,51.577343 60.387722,52.044949 
	C59.628483,51.884903 58.855473,51.772388 58.112228,51.557121 
	C53.218193,50.139645 51.911350,50.931362 52.042824,55.791096 
	C52.189560,61.215221 52.984413,66.637253 52.867916,72.046638 
	C52.808346,74.812599 51.373898,77.548958 50.436810,80.718224 
	C42.332851,76.605690 45.574200,70.274467 45.137966,65.139786 
	C44.879841,62.101505 45.881657,58.978279 45.953026,55.884853 
	C46.066551,50.963757 44.769413,50.115345 39.963863,51.505318 
	C39.353592,51.681831 38.732517,51.824169 38.110806,51.955681 
	C37.964233,51.986687 37.794785,51.909565 37.635860,51.882183 
	C37.450493,49.374207 40.183281,47.585529 45.105064,46.740860 
	C46.135757,44.471596 47.036339,42.488792 48.267944,40.279785 
z"/>
</svg>